<svg width="800" height="500" viewBox="0 0 800 500" xmlns="http://www.w3.org/2000/svg" font-family="'Noto Sans TC', sans-serif">
  <rect width="800" height="500" fill="#f0efe8"/>
  <!-- Header -->
  <rect x="0" y="29" width="800" height="60" fill="#e8e6de"/>
  <rect x="0" y="29" width="6" height="60" rx="2" fill="#d97706"/>
  <text x="28" y="74" font-size="28" fill="#1e293b" font-weight="700">10 個缺失——前 5 項快速對照</text>
  <!-- Row 1 N=5 H=60 -->
  <rect x="28" y="118" width="744" height="60" rx="12" fill="white" stroke="#e8e6de" stroke-width="1"/>
  <rect x="28" y="118" width="6" height="60" rx="2" fill="#78716c"/>
  <circle cx="66" cy="148" r="16" fill="#d97706" opacity="0.15"/>
  <text x="66" y="154" font-size="14" fill="#d97706" text-anchor="middle" font-weight="900">No.1</text>
  <text x="100" y="138" font-size="20" fill="#1e293b" font-weight="700">資源清單超過一年未更新（A1）</text>
  <text x="100" y="159" font-size="16" fill="#57534e">立即補更新記錄，標注版本日期與審閱說明</text>
  <rect x="620" y="126" width="136" height="44" rx="8" fill="#d97706" opacity="0.12"/>
  <text x="688" y="146" font-size="16" fill="#d97706" text-anchor="middle">立即可補</text>
  <text x="688" y="162" font-size="16" fill="#d97706" text-anchor="middle">A1</text>
  <!-- Row 2 -->
  <rect x="28" y="191" width="744" height="60" rx="12" fill="white" stroke="#e8e6de" stroke-width="1"/>
  <rect x="28" y="191" width="6" height="60" rx="2" fill="#57534e"/>
  <circle cx="66" cy="221" r="16" fill="#78716c" opacity="0.15"/>
  <text x="66" y="227" font-size="14" fill="#78716c" text-anchor="middle" font-weight="900">No.2</text>
  <text x="100" y="211" font-size="20" fill="#1e293b" font-weight="700">感染管制手冊缺更新記錄（A2）</text>
  <text x="100" y="232" font-size="16" fill="#57534e">補審閱記錄表，感控負責人簽名確認即可</text>
  <rect x="620" y="199" width="136" height="44" rx="8" fill="#78716c" opacity="0.12"/>
  <text x="688" y="219" font-size="16" fill="#78716c" text-anchor="middle">立即可補</text>
  <text x="688" y="235" font-size="16" fill="#78716c" text-anchor="middle">A2</text>
  <!-- Row 3 -->
  <rect x="28" y="264" width="744" height="60" rx="12" fill="white" stroke="#e8e6de" stroke-width="1"/>
  <rect x="28" y="264" width="6" height="60" rx="2" fill="#a8a29e"/>
  <circle cx="66" cy="294" r="16" fill="#57534e" opacity="0.15"/>
  <text x="66" y="300" font-size="14" fill="#57534e" text-anchor="middle" font-weight="900">No.3</text>
  <text x="100" y="284" font-size="20" fill="#1e293b" font-weight="700">部分器材缺校正記錄（A2）</text>
  <text x="100" y="305" font-size="16" fill="#57534e">立即執行校正並建立器材清單記錄頻率</text>
  <rect x="620" y="272" width="136" height="44" rx="8" fill="#57534e" opacity="0.12"/>
  <text x="688" y="292" font-size="16" fill="#57534e" text-anchor="middle">立即可補</text>
  <text x="688" y="308" font-size="16" fill="#57534e" text-anchor="middle">A2</text>
  <!-- Row 4 -->
  <rect x="28" y="337" width="744" height="60" rx="12" fill="white" stroke="#e8e6de" stroke-width="1"/>
  <rect x="28" y="337" width="6" height="60" rx="2" fill="#94a3b8"/>
  <circle cx="66" cy="367" r="16" fill="#a8a29e" opacity="0.15"/>
  <text x="66" y="373" font-size="14" fill="#a8a29e" text-anchor="middle" font-weight="900">No.4</text>
  <text x="100" y="357" font-size="20" fill="#1e293b" font-weight="700">安全辦法缺動物咬傷或扎刺傷（A3）</text>
  <text x="100" y="378" font-size="16" fill="#57534e">修訂辦法加入四類情境，記錄修訂日期</text>
  <rect x="620" y="345" width="136" height="44" rx="8" fill="#a8a29e" opacity="0.12"/>
  <text x="688" y="365" font-size="16" fill="#a8a29e" text-anchor="middle">立即可補</text>
  <text x="688" y="381" font-size="16" fill="#a8a29e" text-anchor="middle">A3</text>
  <!-- Row 5 -->
  <rect x="28" y="410" width="744" height="60" rx="12" fill="white" stroke="#e8e6de" stroke-width="1"/>
  <rect x="28" y="410" width="6" height="60" rx="2" fill="#6b7280"/>
  <circle cx="66" cy="440" r="16" fill="#94a3b8" opacity="0.15"/>
  <text x="66" y="446" font-size="14" fill="#94a3b8" text-anchor="middle" font-weight="900">No.5</text>
  <text x="100" y="430" font-size="20" fill="#1e293b" font-weight="700">緊急事件記錄缺後續追蹤結果（A4）</text>
  <text x="100" y="451" font-size="16" fill="#57534e">近期事件可補追蹤欄位，缺整體分析報告需重製</text>
  <rect x="620" y="418" width="136" height="44" rx="8" fill="#94a3b8" opacity="0.12"/>
  <text x="688" y="438" font-size="16" fill="#94a3b8" text-anchor="middle">部分可補</text>
  <text x="688" y="454" font-size="16" fill="#94a3b8" text-anchor="middle">A4</text>
  <!-- Watermark -->
  <text x="760" y="480" font-size="16" fill="#d97706" text-anchor="end" font-weight="400">報告汪 reportwang.com</text>
</svg>
