<svg xmlns="http://www.w3.org/2000/svg" width="1200" height="630" viewBox="0 0 1200 630" font-family="'Noto Sans TC', sans-serif">
  <!-- @template: cover -->
  <rect width="1200" height="630" fill="#f0efe8"/>

  <rect x="820" y="0" width="380" height="630" fill="#e8e6de"/>
  <!-- 大型條號裝飾 -->
  <text x="1010" y="220" text-anchor="middle" font-size="140" fill="#d97706" opacity="0.85" font-weight="900">2.1</text>
  <text x="1010" y="260" text-anchor="middle" font-size="140" fill="#57534e" opacity="0.6" font-weight="900">2.2</text>
  <line x1="880" y1="296" x2="1140" y2="296" stroke="#dedad3" stroke-width="1"/>
  <text x="1010" y="338" text-anchor="middle" font-size="22" fill="#57534e">三方參與簽名</text>
  <text x="1010" y="368" text-anchor="middle" font-size="22" fill="#57534e">每季定期更新</text>
  <text x="1010" y="398" text-anchor="middle" font-size="22" fill="#57534e">個別化目標</text>
  <text x="1010" y="428" text-anchor="middle" font-size="22" fill="#57534e">自殺風險評估</text>

  <rect x="60" y="56" width="230" height="36" rx="18" fill="#d97706" opacity="0.15"/>
  <text x="175" y="79" text-anchor="middle" font-size="17" fill="#d97706" font-weight="600">115年度 精神復健機構</text>

  <text x="60" y="190" font-size="80" fill="#1e293b" font-weight="900">復健評估與計畫</text>
  <text x="60" y="298" font-size="90" fill="#d97706" font-weight="900">怎麼寫？</text>

  <line x1="60" y1="322" x2="760" y2="322" stroke="#dedad3" stroke-width="2"/>

  <text x="60" y="372" font-size="30" fill="#57534e">2.1＋2.2逐條拆解，常見失分陷阱完整解析</text>

  <rect x="60" y="410" width="192" height="36" rx="18" fill="#fef2f2"/>
  <text x="156" y="433" text-anchor="middle" font-size="16" fill="#dc2626" font-weight="600">最常被扣分條目</text>

  <rect x="266" y="410" width="192" height="36" rx="18" fill="#eff6ff"/>
  <text x="362" y="433" text-anchor="middle" font-size="16" fill="#2563eb" font-weight="600">三方參與機制</text>

  <rect x="472" y="410" width="192" height="36" rx="18" fill="#f0fdf4"/>
  <text x="568" y="433" text-anchor="middle" font-size="16" fill="#16a34a" font-weight="600">個別化目標撰寫</text>

  <text x="1140" y="590" font-size="24" fill="#c4bfb8" text-anchor="end" font-weight="400">報告汪 reportwang.com</text>
</svg>
